HIERARCHY
ROOT Hips
{
	OFFSET -0.001795 -0.223333 0.028219
	CHANNELS 6 Xposition Yposition Zposition Zrotation Yrotation Xrotation 
	JOINT LeftUpLeg
	{
		OFFSET 0.069520 -0.091406 -0.006815
		CHANNELS 3 Zrotation Yrotation Xrotation
		JOINT LeftLeg
		{
			OFFSET 0.034277 -0.375199 -0.004496
			CHANNELS 3 Zrotation Yrotation Xrotation
			JOINT LeftFoot
			{
				OFFSET -0.013596 -0.397961 -0.043693
				CHANNELS 3 Zrotation Yrotation Xrotation
				JOINT LeftToe
				{
					OFFSET 0.026358 -0.055791 0.119288
					CHANNELS 3 Zrotation Yrotation Xrotation
					End Site
					{
						OFFSET 0.000000 0.000000 0.000000
					}
				}
			}
		}
	}
	JOINT RightUpLeg
	{
		OFFSET -0.067670 -0.090522 -0.004320
		CHANNELS 3 Zrotation Yrotation Xrotation
		JOINT RightLeg
		{
			OFFSET -0.038290 -0.382569 -0.008850
			CHANNELS 3 Zrotation Yrotation Xrotation
			JOINT RightFoot
			{
				OFFSET 0.015774 -0.398415 -0.042312
				CHANNELS 3 Zrotation Yrotation Xrotation
				JOINT RightToe
				{
					OFFSET -0.025372 -0.048144 0.123348
					CHANNELS 3 Zrotation Yrotation Xrotation
					End Site
					{
						OFFSET 0.000000 0.000000 0.000000
					}
				}
			}
		}
	}
	JOINT Spine
	{
		OFFSET -0.002533 0.108963 -0.026696
		CHANNELS 3 Zrotation Yrotation Xrotation
		JOINT Spine1
		{
			OFFSET 0.005487 0.135180 0.001092
			CHANNELS 3 Zrotation Yrotation Xrotation
			JOINT Spine2
			{
				OFFSET 0.001457 0.052922 0.025425
				CHANNELS 3 Zrotation Yrotation Xrotation
				JOINT Neck
				{
					OFFSET -0.002778 0.213870 -0.042857
					CHANNELS 3 Zrotation Yrotation Xrotation
					JOINT Head
					{
						OFFSET 0.005152 0.064970 0.051349
						CHANNELS 3 Zrotation Yrotation Xrotation
						End Site
						{
							OFFSET 0.000000 0.000000 0.000000
						}
					}
				}
				JOINT LeftShoulder
				{
					OFFSET 0.078845 0.121749 -0.034090
					CHANNELS 3 Zrotation Yrotation Xrotation
					JOINT LeftArm
					{
						OFFSET 0.090977 0.030469 -0.008868
						CHANNELS 3 Zrotation Yrotation Xrotation
						JOINT LeftForeArm
						{
							OFFSET 0.259612 -0.012772 -0.027456
							CHANNELS 3 Zrotation Yrotation Xrotation
							JOINT LeftHand
							{
								OFFSET 0.249234 0.008986 -0.001171
								CHANNELS 3 Zrotation Yrotation Xrotation
								End Site
								{
									OFFSET 0.000000 0.000000 0.000000
								}
							}
						}
					}
				}
				JOINT RightShoulder
				{
					OFFSET -0.081759 0.118833 -0.038615
					CHANNELS 3 Zrotation Yrotation Xrotation
					JOINT RightArm
					{
						OFFSET -0.096012 0.032551 -0.009143
						CHANNELS 3 Zrotation Yrotation Xrotation
						JOINT RightForeArm
						{
							OFFSET -0.253742 -0.013329 -0.021401
							CHANNELS 3 Zrotation Yrotation Xrotation
							JOINT RightHand
							{
								OFFSET -0.255298 0.007772 -0.005559
								CHANNELS 3 Zrotation Yrotation Xrotation
								End Site
								{
									OFFSET 0.000000 0.000000 0.000000
								}
							}
						}
					}
				}
			}
		}
	}
}
MOTION
Frames: 5
Frame Time: 0.050000
0.000000 0.960829 0.000000 1.012087 1.612334 0.320186 1.769862 0.296282 4.359864 -2.889983 0.373284 -8.534173 -1.882745 2.408221 13.788247 0.000000 0.000000 0.000000 -2.589300 -0.488423 6.806017 1.175623 -0.247088 -4.055584 -5.677572 -15.501196 12.539700 0.000000 0.000000 0.000000 -3.510952 0.048533 -2.366496 2.186685 -0.047808 -20.287020 0.136122 2.834973 24.039926 -2.317345 3.374061 -21.020512 0.000000 0.000000 0.000000 -8.926576 -12.276754 4.347008 -38.169311 -54.728674 11.244034 124.326378 -41.882706 -65.739554 0.000000 0.000000 0.000000 -3.508391 19.506013 6.151306 30.394188 48.603215 7.819989 -120.276199 33.391972 -44.197862 0.000000 0.000000 0.000000 
0.001163 0.959507 0.002126 0.733632 0.882938 0.887154 2.484388 0.258935 4.329953 -3.531061 0.402322 -9.141925 -1.610864 2.469357 13.040313 0.000000 0.000000 0.000000 -2.752891 -0.398104 5.997887 1.228028 -0.216972 -2.960911 -5.403609 -14.976473 11.699003 0.000000 0.000000 0.000000 -3.711877 0.065108 -3.657215 2.799264 -0.258600 -19.797024 0.225852 2.717032 24.513949 -3.070738 3.769618 -21.519775 0.000000 0.000000 0.000000 -9.908471 -12.414151 4.521345 -39.634747 -56.184538 12.539825 125.298812 -42.010143 -66.421940 0.000000 0.000000 0.000000 -2.680221 20.297055 6.555691 33.336290 49.039472 8.954032 -123.495370 32.499126 -45.359526 0.000000 0.000000 0.000000 
0.002444 0.957703 0.003822 0.933240 -0.893480 0.357022 2.555524 0.322438 4.969105 -4.525892 0.464547 -7.913240 -0.780761 3.218946 11.930427 0.000000 0.000000 0.000000 -3.645826 -0.342336 6.568816 1.981844 -0.283111 -3.529711 -4.846980 -13.988854 10.903464 0.000000 0.000000 0.000000 -2.946812 0.075964 -3.131815 2.279519 -0.139159 -20.115369 0.400231 3.838119 25.568627 -2.261864 3.306376 -21.880295 0.000000 0.000000 0.000000 -9.329820 -12.509931 4.584735 -39.403005 -55.884179 12.202356 126.274056 -42.042811 -67.345456 0.000000 0.000000 0.000000 -1.921443 19.921903 6.549181 37.263634 47.959123 10.005496 -127.277001 34.503940 -51.604925 0.000000 0.000000 0.000000 
0.003362 0.956988 0.005474 0.843626 -0.245035 0.305688 2.505938 0.361056 5.581594 -4.631736 0.456012 -8.469933 -0.841631 3.317817 12.282320 0.000000 0.000000 0.000000 -3.254392 -0.414355 6.956198 2.161369 -0.294919 -3.300393 -5.020801 -14.294221 11.131168 0.000000 0.000000 0.000000 -3.349618 0.071585 -3.644805 3.194246 -0.416803 -19.455263 -0.142793 2.973524 25.705569 -1.785478 2.894954 -20.714488 0.000000 0.000000 0.000000 -9.913423 -11.734231 4.327613 -41.055005 -54.363130 12.368974 128.424818 -43.107497 -70.949631 0.000000 0.000000 0.000000 -0.525447 19.173687 6.551466 40.515794 47.013475 10.751892 -128.799374 35.806859 -55.193533 0.000000 0.000000 0.000000 
0.004213 0.956687 0.006950 0.829987 -0.310997 -0.017556 2.286104 0.428237 6.288769 -4.572841 0.454205 -8.627014 -0.486277 3.908971 12.324026 0.000000 0.000000 0.000000 -3.381811 -0.444610 7.528902 1.915942 -0.287067 -3.782498 -4.429460 -13.241805 11.382609 0.000000 0.000000 0.000000 -3.243143 0.066661 -3.305466 3.483521 -0.549422 -18.621344 -0.391035 2.483163 25.173376 -1.433120 2.574755 -20.473395 0.000000 0.000000 0.000000 -10.188272 -11.162832 4.150736 -41.269193 -51.885175 11.530665 131.440548 -44.978973 -77.019991 0.000000 0.000000 0.000000 1.040289 17.882298 6.349169 42.838661 44.748976 10.561900 -130.369408 37.804202 -60.340920 0.000000 0.000000 0.000000 
